<svg width="40" height="47" viewBox="0 0 40 47" fill="none" xmlns="http://www.w3.org/2000/svg">
    <ellipse cx="19" cy="2.5" rx="2" ry="2.5" fill="#6563FF"/>
    <path d="M30 27.9263C30 38.4604 25.5228 47 20 47C14.4772 47 10 38.4604 10 27.9263C10 17.3922 14.4772 38.6858 20 38.6858C25.5228 38.6858 30 17.3922 30 27.9263Z"
          fill="#6563FF"/>
    <ellipse cx="19.5" cy="22.5" rx="14.5" ry="19.5" fill="#ADADFD"/>
    <path d="M1.66223 30.6766L3.7184 28.1199C4.28785 27.4118 5.14753 27 6.05617 27H33.4788C34.3076 27 35.0995 27.3429 35.6666 27.9473L38.1878 30.6343C38.7096 31.1905 39 31.9244 39 32.6871V38.9959C39 40.2091 38.2618 41.306 37.1411 41.7705C36.777 41.9214 36.3844 42 35.9902 42H3.82996C3.17045 42 2.53165 41.7697 2.02391 41.3488C1.37533 40.8111 1 40.0125 1 39.17V32.5567C1 31.8728 1.23365 31.2095 1.66223 30.6766Z"
          fill="#ADADFD" stroke="#ADADFD"/>
</svg>
